<svg width="14" height="15" viewBox="0 0 14 15" fill="none" xmlns="http://www.w3.org/2000/svg">
<path d="M10.8623 14.0613C10.4882 14.0656 10.1182 13.9833 9.78111 13.8209C9.44408 13.6584 9.14921 13.4201 8.91957 13.1247C8.68994 12.8293 8.53178 12.4848 8.45745 12.1181C8.38312 11.7513 8.39465 11.3724 8.49114 11.0109L4.10338 8.50303C3.73325 8.84213 3.26784 9.05931 2.77018 9.12514C2.27252 9.19097 1.76666 9.10228 1.32108 8.87108C0.875494 8.63988 0.511725 8.27733 0.279023 7.83253C0.0463218 7.38773 -0.0440709 6.88216 0.020085 6.38429C0.0842409 5.88641 0.299846 5.42028 0.637707 5.049C0.975567 4.67772 1.41936 4.41924 1.909 4.30855C2.39864 4.19785 2.91046 4.2403 3.37517 4.43015C3.83989 4.61999 4.23503 4.94805 4.50711 5.36992L8.49044 3.09263C8.43891 2.8979 8.4116 2.69756 8.40913 2.49615C8.40426 1.92716 8.59559 1.37388 8.95091 0.929451C9.30623 0.485025 9.80383 0.176605 10.3599 0.0561219C10.916 -0.0643611 11.4967 0.0104525 12.0041 0.267966C12.5115 0.525479 12.9146 0.949962 13.1457 1.46994C13.3768 1.98992 13.4216 2.57364 13.2726 3.1228C13.1237 3.67196 12.7901 4.15304 12.3279 4.48501C11.8658 4.81698 11.3034 4.97959 10.7354 4.94543C10.1675 4.91128 9.6286 4.68246 9.20958 4.29751L4.89893 6.76124C4.89402 6.94348 4.86879 7.12362 4.82253 7.29955L9.21028 9.80674C9.50396 9.53723 9.85896 9.34345 10.2445 9.24222C10.63 9.14098 11.0344 9.13535 11.4226 9.22582C11.8108 9.31628 12.1711 9.5001 12.4721 9.76133C12.7732 10.0226 13.006 10.3533 13.1502 10.7249C13.2945 11.0964 13.346 11.4976 13.3001 11.8936C13.2542 12.2895 13.1124 12.6683 12.887 12.997C12.6616 13.3257 12.3593 13.5945 12.0065 13.78C11.6537 13.9654 11.2609 14.062 10.8623 14.0613ZM10.8623 10.5567C10.5835 10.5567 10.3161 10.6675 10.1189 10.8647C9.92174 11.0618 9.81097 11.3293 9.81097 11.6081C9.81097 11.8869 9.92174 12.1544 10.1189 12.3515C10.3161 12.5487 10.5835 12.6595 10.8623 12.6595C11.1412 12.6595 11.4086 12.5487 11.6058 12.3515C11.803 12.1544 11.9137 11.8869 11.9137 11.6081C11.9137 11.3293 11.803 11.0618 11.6058 10.8647C11.4086 10.6675 11.1412 10.5567 10.8623 10.5567ZM2.45132 5.65028C2.17247 5.65028 1.90505 5.76105 1.70788 5.95823C1.51071 6.1554 1.39994 6.42282 1.39994 6.70166C1.39994 6.98051 1.51071 7.24793 1.70788 7.4451C1.90505 7.64227 2.17247 7.75304 2.45132 7.75304C2.73016 7.75304 2.99758 7.64227 3.19475 7.4451C3.39193 7.24793 3.5027 6.98051 3.5027 6.70166C3.5027 6.42282 3.39193 6.1554 3.19475 5.95823C2.99758 5.76105 2.73016 5.65028 2.45132 5.65028ZM10.8623 1.44477C10.7243 1.44477 10.5876 1.47196 10.46 1.5248C10.3324 1.57764 10.2165 1.65508 10.1189 1.75271C10.0213 1.85034 9.94384 1.96624 9.891 2.0938C9.83817 2.22136 9.81097 2.35808 9.81097 2.49615C9.81097 2.63422 9.83817 2.77093 9.891 2.89849C9.94384 3.02605 10.0213 3.14195 10.1189 3.23958C10.2165 3.33721 10.3324 3.41466 10.46 3.46749C10.5876 3.52033 10.7243 3.54753 10.8623 3.54753C11.1412 3.54753 11.4086 3.43676 11.6058 3.23958C11.803 3.04241 11.9137 2.77499 11.9137 2.49615C11.9137 2.2173 11.803 1.94988 11.6058 1.75271C11.4086 1.55554 11.1412 1.44477 10.8623 1.44477Z" fill="#2376E5"/>
</svg>
