<svg width="13" height="13" viewBox="0 0 13 13" fill="none" xmlns="http://www.w3.org/2000/svg">
<path d="M4.59646 0.788304C5.10136 0.283553 5.78607 0 6.5 0C7.21393 0 7.89864 0.283553 8.40354 0.788304L12.2117 4.59646C12.7164 5.10136 13 5.78607 13 6.5C13 7.21393 12.7164 7.89864 12.2117 8.40354L8.40354 12.2117C7.89864 12.7164 7.21393 13 6.5 13C5.78607 13 5.10136 12.7164 4.59646 12.2117L0.788304 8.40354C0.283553 7.89864 0 7.21393 0 6.5C0 5.78607 0.283553 5.10136 0.788304 4.59646L4.59646 0.788304ZM7.41811 2.88839C7.36844 2.83696 7.30902 2.79594 7.24333 2.76771C7.17763 2.73949 7.10697 2.72464 7.03547 2.72402C6.96397 2.7234 6.89306 2.73702 6.82688 2.7641C6.76071 2.79117 6.70058 2.83116 6.65002 2.88172C6.59946 2.93227 6.55948 2.9924 6.5324 3.05858C6.50533 3.12475 6.4917 3.19566 6.49233 3.26716C6.49295 3.33866 6.5078 3.40932 6.53602 3.47502C6.56424 3.54071 6.60527 3.60013 6.6567 3.64981L7.3535 4.34553H5.96098C5.53253 4.34553 5.12164 4.51573 4.81868 4.81868C4.51573 5.12164 4.34553 5.53253 4.34553 5.96098V8.6534C4.34553 8.79621 4.40226 8.93318 4.50324 9.03416C4.60423 9.13515 4.7412 9.19188 4.88401 9.19188C5.02682 9.19188 5.16379 9.13515 5.26478 9.03416C5.36576 8.93318 5.42249 8.79621 5.42249 8.6534V5.96098C5.42249 5.81816 5.47923 5.6812 5.58021 5.58021C5.6812 5.47923 5.81816 5.42249 5.96098 5.42249H7.3535L6.6567 6.11821C6.60663 6.16828 6.56692 6.22772 6.53982 6.29313C6.51273 6.35855 6.49878 6.42866 6.49878 6.49946C6.49878 6.57027 6.51273 6.64038 6.53982 6.70579C6.56692 6.7712 6.60663 6.83064 6.6567 6.88071C6.70676 6.93077 6.7662 6.97049 6.83162 6.99758C6.89703 7.02468 6.96714 7.03862 7.03795 7.03862C7.10875 7.03862 7.17886 7.02468 7.24427 6.99758C7.30969 6.97049 7.36913 6.93077 7.41919 6.88071L9.03464 5.26526C9.08479 5.21524 9.12458 5.15581 9.15172 5.09039C9.17887 5.02497 9.19284 4.95484 9.19284 4.88401C9.19284 4.81318 9.17887 4.74305 9.15172 4.67763C9.12458 4.61221 9.08479 4.55278 9.03464 4.50276L7.41919 2.88731L7.41811 2.88839Z" fill="white"/>
</svg>
