<svg width="11" height="13" viewBox="0 0 11 13" fill="none" xmlns="http://www.w3.org/2000/svg">
<path d="M0.895942 13C0.689649 13 0.491804 12.9242 0.345933 12.7892C0.200061 12.6542 0.118111 12.4711 0.118111 12.2802L0.00143674 1.72757C-0.00792943 1.51332 0.0285698 1.29946 0.108835 1.0983C0.189101 0.89714 0.311548 0.712652 0.469136 0.555444C0.626723 0.398237 0.816341 0.271412 1.02708 0.182265C1.23782 0.0931173 1.46553 0.0434065 1.69711 0.0359911L9.1565 0C9.38838 0.00374799 9.6172 0.0497343 9.82987 0.135332C10.0425 0.22093 10.2349 0.344462 10.396 0.498873C10.5571 0.653285 10.6837 0.835549 10.7686 1.03526C10.8536 1.23496 10.8952 1.4482 10.8911 1.66279L11 12.2154C11.0013 12.3415 10.9668 12.4658 10.8999 12.5757C10.833 12.6856 10.7361 12.7773 10.6188 12.8416C10.5006 12.9048 10.3664 12.9381 10.2299 12.9381C10.0934 12.9381 9.95924 12.9048 9.84099 12.8416L5.40736 10.567L1.29264 12.892C1.17079 12.955 1.03523 12.9919 0.895942 13ZM5.37625 9.00498C5.5114 9.00521 5.64462 9.0348 5.76516 9.09136L9.42874 10.9701L9.3354 1.64839C9.3354 1.50443 9.23429 1.40365 9.17206 1.41085L1.70489 1.47564C1.64266 1.47564 1.5571 1.56921 1.5571 1.71318L1.65044 10.9989L4.97955 9.10576C5.10046 9.04169 5.23694 9.00702 5.37625 9.00498Z" fill="#2376E5"/>
</svg>
