<svg width="16" height="16" viewBox="0 0 16 16" fill="none" xmlns="http://www.w3.org/2000/svg">
<path d="M8.06931 3.35638C6.30788 3.35638 4.88119 4.81554 4.88119 6.61524C4.88007 7.31815 5.10232 8.00241 5.5145 8.56505L7.55945 12.1857C7.57132 12.2091 7.58319 12.2323 7.59778 12.2537L7.6023 12.2616L7.60354 12.261C7.65678 12.3368 7.72699 12.3985 7.80831 12.4409C7.88963 12.4834 7.9797 12.5053 8.071 12.5049C8.24691 12.5049 8.4002 12.4231 8.50568 12.297L8.51099 12.3001L8.53123 12.2643C8.56107 12.2232 8.58753 12.1793 8.60663 12.1308L10.6101 8.58343C11.031 8.01757 11.2584 7.32608 11.2574 6.61524C11.2574 4.81554 9.83073 3.35638 8.06931 3.35638ZM8.03777 8.26738C7.16988 8.26738 6.46694 7.54849 6.46694 6.6617C6.46694 5.77502 7.16988 5.05601 8.03777 5.05601C8.90565 5.05601 9.60859 5.77502 9.60859 6.6617C9.60859 7.54837 8.90565 8.26738 8.03777 8.26738Z" fill="#2376E5"/>
<circle cx="8" cy="8" r="7" stroke="#2376E5" stroke-width="2" stroke-linecap="round" stroke-dasharray="1 3"/>
<path d="M8.06931 15C4.16504 15 1 11.866 1 8C1 4.13401 4.16504 1 8.06931 1" stroke="#2376E5" stroke-width="2"/>
</svg>
