<svg width="17" height="17" viewBox="0 0 17 17" fill="none" xmlns="http://www.w3.org/2000/svg">
<path d="M6.85867 14.4095C8.38042 14.4092 9.85832 13.8997 11.057 12.9623L14.8259 16.7311L16.0381 15.5189L12.2693 11.75C13.2072 10.5512 13.717 9.07295 13.7173 7.55081C13.7173 3.76911 10.6404 0.692139 6.85867 0.692139C3.07697 0.692139 0 3.76911 0 7.55081C0 11.3325 3.07697 14.4095 6.85867 14.4095ZM6.85867 2.40681C9.69559 2.40681 12.0027 4.71389 12.0027 7.55081C12.0027 10.3877 9.69559 12.6948 6.85867 12.6948C4.02175 12.6948 1.71467 10.3877 1.71467 7.55081C1.71467 4.71389 4.02175 2.40681 6.85867 2.40681Z" fill="#9D9D9D"/>
</svg>
