<svg width="17" height="13" viewBox="0 0 17 13" fill="none" xmlns="http://www.w3.org/2000/svg">
<path d="M14.625 0H3.25C2.35381 0 1.625 0.728812 1.625 1.625V5.6875H3.25V3.25L8.45 7.15C8.59069 7.25536 8.76173 7.3123 8.9375 7.3123C9.11327 7.3123 9.28431 7.25536 9.425 7.15L14.625 3.25V10.5625H8.125V12.1875H14.625C15.5212 12.1875 16.25 11.4587 16.25 10.5625V1.625C16.25 0.728812 15.5212 0 14.625 0ZM8.9375 5.48438L3.79112 1.625H14.0839L8.9375 5.48438Z" fill="#2376E5"/>
<path d="M0 6.5H5.6875V8.125H0V6.5ZM1.625 8.9375H6.5V10.5625H1.625V8.9375ZM4.0625 11.375H7.3125V13H4.0625V11.375Z" fill="#2376E5"/>
</svg>
